<?xml version="1.0" encoding="utf-8"?>
<svg width="1000px" height="1000px" viewBox="0 0 47 47" version="1.1" xmlns:xlink="http://www.w3.org/1999/xlink" xmlns="http://www.w3.org/2000/svg">
  <desc>Created with Lunacy</desc>
  <defs>
    <linearGradient x1="0" y1="0" x2="1" y2="1" id="gradient_1">
      <stop offset="0" stop-color="#00E0F2" />
      <stop offset="1" stop-color="#00BEE0" />
    </linearGradient>
  </defs>
  <path d="M23.5 47C36.4787 47 47 36.4787 47 23.5C47 10.5213 36.4787 0 23.5 0C10.5213 0 0 10.5213 0 23.5C0 36.4787 10.5213 47 23.5 47Z" id="Oval" fill="url(#gradient_1)" stroke="none" />
  <g id="noun_Pool_1183250" transform="translate(12.43994 11)">
    <path d="M21.3733 0C20.2322 0 19.6479 0.813291 19.181 1.46835C18.7141 2.12342 18.4769 2.41772 17.9126 2.41772C17.3483 2.41772 17.0911 2.10127 16.6442 1.46835C16.1973 0.835443 15.593 0 14.4519 0C13.3109 0 12.7291 0.813291 12.2597 1.46835C11.7903 2.12342 11.5556 2.41772 10.9938 2.41772C10.432 2.41772 10.1723 2.10127 9.72784 1.46835C9.2834 0.835443 8.67665 0 7.53558 0C6.39451 0 5.81273 0.813291 5.34332 1.46835C4.87391 2.12342 4.6392 2.41772 4.0774 2.41772C3.51561 2.41772 3.25843 2.10127 2.81149 1.46835C2.36454 0.835443 1.7603 0 0.62422 0C0.279473 0 0 0.354205 0 0.791139C0 1.22807 0.279473 1.58228 0.62422 1.58228C1.18602 1.58228 1.4432 1.89873 1.89014 2.53165C2.33708 3.16456 2.94132 4 4.0799 4C5.21848 4 5.80275 3.18671 6.27216 2.53165C6.74157 1.87658 6.97628 1.58228 7.53808 1.58228C8.09987 1.58228 8.35955 1.89873 8.804 2.53165C9.24844 3.16456 9.85518 4 10.9963 4C12.1373 4 12.7191 3.18671 13.1885 2.53165C13.6579 1.87658 13.8926 1.58228 14.4544 1.58228C15.0162 1.58228 15.2759 1.89873 15.7228 2.53165C16.1698 3.16456 16.774 4 17.9151 4C19.0562 4 19.6404 3.18671 20.1074 2.53165C20.5743 1.87658 20.8115 1.58228 21.3758 1.58228C21.7205 1.58228 22 1.22807 22 0.791139C22 0.354205 21.7205 0 21.3758 0L21.3733 0Z" transform="translate(0 18)" id="Path" fill="#FFFFFF" stroke="none" />
    <path d="M21.3733 0C20.2322 0 19.6479 0.813291 19.181 1.46835C18.7141 2.12342 18.4769 2.41772 17.9126 2.41772C17.3483 2.41772 17.0911 2.10127 16.6442 1.46835C16.1973 0.835443 15.593 0 14.4519 0C13.3109 0 12.7291 0.813291 12.2597 1.46835C11.7903 2.12342 11.5581 2.41772 10.9988 2.41772C10.4395 2.41772 10.1773 2.10127 9.73283 1.46835C9.28839 0.835443 8.68165 0 7.54057 0C6.3995 0 5.81773 0.813291 5.34831 1.46835C4.8789 2.12342 4.64419 2.41772 4.0824 2.41772C3.5206 2.41772 3.25843 2.10127 2.81398 1.46835C2.36954 0.835443 1.7603 0 0.62422 0C0.279473 4.49711e-15 0 0.354205 0 0.791139C0 1.22807 0.279473 1.58228 0.62422 1.58228C1.18602 1.58228 1.4432 1.89873 1.89014 2.53165C2.33708 3.16456 2.93883 4 4.0799 4C5.22097 4 5.80275 3.18671 6.27216 2.53165C6.74157 1.87658 6.97628 1.58228 7.53808 1.58228C8.09987 1.58228 8.35955 1.89873 8.804 2.53165C9.24844 3.16456 9.85518 4 10.9988 4C12.1423 4 12.7216 3.18671 13.191 2.53165C13.6604 1.87658 13.8951 1.58228 14.4569 1.58228C15.0187 1.58228 15.2784 1.89873 15.7253 2.53165C16.1723 3.16456 16.7715 4 17.9151 4C19.0587 4 19.6404 3.18671 20.1074 2.53165C20.5743 1.87658 20.8115 1.58228 21.3758 1.58228C21.7205 1.58228 22 1.22807 22 0.791139C22 0.354205 21.7205 4.49711e-15 21.3758 4.49711e-15L21.3733 0Z" transform="translate(0 22)" id="Path" fill="#FFFFFF" stroke="none" />
    <path d="M2.22497 1.30701C2.62199 1.30532 2.98476 1.55378 3.15817 1.94617C3.25149 2.15542 3.43933 2.29407 3.65092 2.3099C3.86252 2.32574 4.06574 2.21634 4.18402 2.02293C4.30229 1.82952 4.31767 1.58147 4.22435 1.37223C3.76972 0.349199 2.73247 -0.193586 1.72297 0.063271C0.713472 0.320128 -0.000992834 1.30862 0 2.44707L0 15.34C0 15.7002 0.265783 15.9922 0.593642 15.9922C0.921501 15.9922 1.18728 15.7002 1.18728 15.34L1.18728 13.8294L7.71734 13.8294L7.71734 15.3478C7.71734 15.708 7.98312 16 8.31098 16C8.63884 16 8.90462 15.708 8.90462 15.3478L8.90462 2.44707C8.90588 1.91765 9.23871 1.45884 9.70817 1.33939C10.1776 1.21993 10.6602 1.47126 10.8731 1.94617C11.0174 2.26964 11.373 2.40338 11.6674 2.24488C11.9618 2.08639 12.0836 1.69569 11.9393 1.37223C11.4833 0.352303 10.4476 -0.187854 9.44004 0.0686647C8.43243 0.325184 7.7186 1.31072 7.71734 2.44707L7.71734 4.8759L1.18728 4.8759L1.18728 2.44707C1.18728 1.81743 1.65187 1.30701 2.22497 1.30701ZM7.71734 8.69785L7.71734 6.18032L1.18728 6.18032L1.18728 8.69785L7.71734 8.69785ZM1.18728 12.525L1.18728 10.0023L7.71734 10.0023L7.71734 12.525L1.18728 12.525Z" transform="translate(6 0)" id="Shape" fill="#FFFFFF" fill-rule="evenodd" stroke="none" />
  </g>
</svg>