<?xml version="1.0" encoding="utf-8"?>
<svg viewBox="0 0 21 23" version="1.1" xmlns:xlink="http://www.w3.org/1999/xlink" xmlns="http://www.w3.org/2000/svg">
  <desc>Created with Lunacy</desc>
  <defs>
    <path d="M8.19 2.09127C8.19 0.936994 9.13162 0 10.29 0C11.4506 0 12.39 0.934656 12.39 2.09127L12.39 2.79489C15.7123 3.72046 18.06 6.74946 18.06 10.2451L18.06 15.2629C18.06 15.6116 18.3406 15.8909 18.6891 15.8909C19.731 15.8909 20.58 16.7345 20.58 17.7727C20.58 18.8109 19.7312 19.6545 18.6858 19.6545L13.4401 19.6545C13.4401 21.3867 12.0298 22.7909 10.2901 22.7909C8.55044 22.7909 7.14014 21.3867 7.14014 19.6545L1.89416 19.6545C0.847808 19.6545 0 18.8123 0 17.7727C0 16.7347 0.847214 15.8909 1.89088 15.8909C2.23727 15.8909 2.52 15.6092 2.52 15.2629L2.52 10.2451C2.52 6.74869 4.86756 3.72031 8.19 2.79486L8.19 2.09127ZM7.56014 19.6545C7.56014 21.1558 8.7824 22.3727 10.2901 22.3727C11.7979 22.3727 13.0201 21.1558 13.0201 19.6545L7.56014 19.6545L7.56014 19.6545ZM8.45224 3.1577C5.23116 3.98277 2.93992 6.8856 2.93992 10.2451L2.93992 15.2629C2.93992 15.8401 2.46921 16.3091 1.8908 16.3091C1.07912 16.3091 0.419922 16.9656 0.419922 17.7727C0.419922 18.5811 1.07948 19.2364 1.89408 19.2364L18.6858 19.2364C19.4993 19.2364 20.1599 18.5798 20.1599 17.7727C20.1599 16.9657 19.4992 16.3091 18.689 16.3091C18.1086 16.3091 17.6399 15.8426 17.6399 15.2629L17.6399 10.2451C17.6399 6.88637 15.3486 3.9829 12.1276 3.15773L11.9699 3.11734L11.9699 2.09127C11.9699 1.16568 11.2186 0.418182 10.2899 0.418182C9.36345 0.418182 8.60992 1.16801 8.60992 2.09127L8.60992 3.11731L8.45224 3.1577Z" id="path_1" />
    <clipPath id="clip_1">
      <use xlink:href="#path_1" />
    </clipPath>
  </defs>
  <g id="Shape">
    <use stroke="none" fill="#000000" xlink:href="#path_1" fill-rule="evenodd" />
    <g clip-path="url(#clip_1)">
      <use xlink:href="#path_1" fill="none" stroke="#000000" stroke-width="2" />
    </g>
  </g>
</svg>