<?xml version="1.0" encoding="utf-8"?>
<svg width="1000px" height="1000px" viewBox="0 0 47 47" version="1.1" xmlns:xlink="http://www.w3.org/1999/xlink" xmlns="http://www.w3.org/2000/svg">
  <desc>Created with Lunacy</desc>
  <defs>
    <linearGradient x1="0" y1="0" x2="1" y2="1" id="gradient_1">
      <stop offset="0" stop-color="#00E0F2" />
      <stop offset="1" stop-color="#00BEE0" />
    </linearGradient>
  </defs>
  <path d="M23.5 47C36.4787 47 47 36.4787 47 23.5C47 10.5213 36.4787 0 23.5 0C10.5213 0 0 10.5213 0 23.5C0 36.4787 10.5213 47 23.5 47Z" id="Oval" fill="url(#gradient_1)" stroke="none" />
  <g id="Group" transform="translate(9.611084 12.21104)">
    <path d="M0.964285 0L0.642857 0C0.469607 0 0.31725 0.0590541 0.202179 0.170635L0.315964 0.280351L0.176143 0.195811C0.0610714 0.30677 0 0.454405 0 0.621622L0 5.81309C0 6.15592 0.288321 6.43472 0.642857 6.43472L0.964285 6.43472C1.31271 6.43472 1.60714 6.15001 1.60714 5.81309L1.60714 0.621622C1.60714 0.284703 1.31271 0 0.964285 0Z" transform="translate(12.69641 0)" id="Path" fill="#FFFFFF" stroke="none" />
    <path d="M6.65454 0.932433L6.65454 0.621622C6.65454 0.278487 6.36621 0 6.01168 0L0.642857 0C0.469607 0 0.31725 0.0587432 0.202179 0.170635L0.315964 0.280662L0.176143 0.196432C0.06075 0.306459 0 0.454095 0 0.621622L0 0.932433C0 1.26935 0.294429 1.55405 0.642857 1.55405L6.01168 1.55405C6.36011 1.55405 6.65454 1.26935 6.65454 0.932433Z" transform="translate(0 12.27733)" id="Path" fill="#FFFFFF" stroke="none" />
    <path d="M6.01136 0L0.642857 0C0.470571 0 0.317893 0.0584324 0.202179 0.170014L0.315643 0.280041L0.176786 0.1955C0.0613929 0.30677 0 0.454095 0 0.621622L0 0.932433C0 1.27557 0.288321 1.55405 0.642857 1.55405L6.01136 1.55405C6.35979 1.55405 6.65421 1.26935 6.65421 0.932433L6.65421 0.621622C6.65421 0.278487 6.36621 0 6.01136 0Z" transform="translate(20.34576 12.27733)" id="Path" fill="#FFFFFF" stroke="none" />
    <path d="M3.98387 4.94407C4.10633 5.06249 4.25708 5.12527 4.43162 5.12558C4.43837 5.12589 4.45508 5.12527 4.45765 5.12527C4.6203 5.12527 4.77105 5.0628 4.89287 4.94438L5.12044 4.72432C5.37115 4.48189 5.37115 4.08778 5.12044 3.84535L1.32437 0.174365C1.08394 -0.0581216 0.655473 -0.0581216 0.415366 0.174365L0.187795 0.394419C-0.0625982 0.636851 -0.0625982 1.03096 0.187795 1.27339L3.98387 4.94407Z" transform="translate(3.652283 3.5392)" id="Path" fill="#FFFFFF" stroke="none" />
    <path d="M4.89283 0.174132C4.6524 -0.0580439 4.22425 -0.0580439 3.98383 0.174132L0.187754 3.84574C-0.0626384 4.08755 -0.0626384 4.48259 0.188076 4.72502L0.415005 4.94414C0.535862 5.06132 0.684362 5.12379 0.822255 5.12379C0.823862 5.12379 0.82579 5.12379 0.827719 5.12379C0.834469 5.12441 0.854076 5.12566 0.861147 5.12566C0.872397 5.12939 0.885255 5.12504 0.889112 5.12504C1.05143 5.12504 1.20218 5.06287 1.32465 4.94414L5.12072 1.27285C5.37143 1.03104 5.37143 0.635997 5.12072 0.393875L4.89283 0.174132Z" transform="translate(3.652344 17.45102)" id="Path" fill="#FFFFFF" stroke="none" />
    <path d="M5.11907 0.400946L4.89182 0.180892C4.76904 0.0627838 4.61829 0 4.45564 0L4.45564 0.155405L4.41836 0C4.25571 0 4.10529 0.062473 3.98314 0.180892L0.186429 3.85157C0.0662143 3.96781 0 4.12384 0 4.29105C0 4.45827 0.0662143 4.6143 0.186429 4.73085L0.414321 4.95059C0.534536 5.06684 0.695893 5.13087 0.868822 5.13087C1.04175 5.13087 1.20311 5.06684 1.32332 4.95059L5.12004 1.27961C5.36882 1.03749 5.36882 0.643068 5.11907 0.400946Z" transform="translate(18.04083 3.532364)" id="Path" fill="#FFFFFF" stroke="none" />
  </g>
</svg>